<svg width="121" height="29" viewBox="0 0 121 29" fill="none" xmlns="http://www.w3.org/2000/svg"> <path fill-rule="evenodd" clip-rule="evenodd" d="M23.2188 27.6351C22.9618 27.6351 22.7537 27.4298 22.7537 27.1775V17.3778C22.7537 13.9834 21.7627 12.9717 19.6713 12.9717C17.5786 12.9717 16.5511 13.9834 16.5511 17.2696V27.1775C16.5511 27.4298 16.3431 27.6351 16.0861 27.6351H11.951C11.6946 27.6351 11.4866 27.4298 11.4866 27.1775V17.3778C11.4866 13.9834 10.495 12.9717 8.40293 12.9717C6.31089 12.9717 5.2834 13.9834 5.2834 17.2696V27.1775C5.2834 27.4298 5.07539 27.6351 4.81899 27.6351H0.683299C0.426272 27.6351 0.218262 27.4298 0.218262 27.1775V9.17353C0.218262 8.89772 0.445753 8.67448 0.726033 8.67448H4.77563C5.05654 8.67448 5.2834 8.89772 5.2834 9.17353V9.93848C6.16446 9.03501 7.48542 8.27686 9.50393 8.27686C11.963 8.27686 13.3945 8.96266 14.8261 10.6966C16.1477 9.36028 17.7621 8.27686 20.9552 8.27686C25.8733 8.27686 27.8183 11.5995 27.8183 16.9449V27.1775C27.8183 27.4298 27.6102 27.6351 27.3532 27.6351H23.2188Z" fill="#135359"></path> <path fill-rule="evenodd" clip-rule="evenodd" d="M42.7844 19.4603C41.8953 18.9292 41.045 18.6812 39.2314 18.6812C37.307 18.6812 36.271 19.5313 36.271 21.0185C36.271 22.3287 37.0479 23.497 39.2314 23.497C40.8967 23.497 42.2293 22.6827 42.7844 21.7976V19.4603ZM43.2531 27.2461C42.9939 27.2461 42.7842 27.0449 42.7842 26.7977V26.0069C41.8584 26.9273 40.2306 27.6351 38.417 27.6351C34.79 27.6351 31.1636 25.5118 31.1636 21.0173C31.1636 16.9119 34.6423 14.8589 39.0463 14.8589C40.823 14.8589 41.97 15.2134 42.7842 15.6024V14.6819C42.7842 13.373 41.8584 12.3108 40.0082 12.3108C37.8594 12.3108 36.6536 12.5817 35.0872 13.3446C34.8603 13.4549 34.5809 13.3797 34.458 13.1664L32.9441 10.5444C32.8193 10.3275 32.903 10.0499 33.1298 9.93115C35.212 8.83798 37.0559 8.27686 40.0082 8.27686C44.708 8.27686 47.8908 10.6123 47.8908 14.7886V26.7977C47.8908 27.0449 47.6811 27.2461 47.4226 27.2461H43.2531Z" fill="#135359"></path> <path fill-rule="evenodd" clip-rule="evenodd" d="M63.2449 26.4988C61.182 28.1216 59.5741 28.4768 58.0503 28.4768C54.8862 28.4768 52.8392 26.0492 52.8392 22.6657V13.1369H50.0351C49.7751 13.1369 49.5635 12.9284 49.5635 12.6709V9.2301C49.5635 8.97317 49.7751 8.76474 50.0351 8.76474H52.8392V6.61551C52.8392 6.18605 53.0297 5.77799 53.3598 5.50028L56.8688 2.54502C57.3041 2.1779 57.9751 2.48394 57.9751 3.04942V8.76474H63.431C63.6847 8.76474 63.8542 9.02229 63.7509 9.25151L62.1373 12.8384C62.0557 13.0197 61.8735 13.1369 61.6721 13.1369H57.9751V21.3144C57.9751 23.1531 58.6456 23.6317 59.8736 23.6317C60.4013 23.6317 60.857 23.5014 61.3834 23.1947C61.6224 23.0555 61.9321 23.1462 62.0506 23.3943L63.387 25.8893C63.4871 26.099 63.4278 26.3546 63.2449 26.4988Z" fill="#135359"></path> <path fill-rule="evenodd" clip-rule="evenodd" d="M73.6295 27.6351C68.6111 27.6351 64.6182 23.6715 64.6182 17.9736C64.6182 12.2756 68.5007 8.27686 73.849 8.27686C77.3514 8.27686 79.6483 9.86207 81.2515 12.0739C81.3794 12.2502 81.3543 12.4932 81.1975 12.6465L78.4189 15.3606C78.2697 15.5061 78.0232 15.4842 77.8965 15.32C76.8271 13.9336 75.6479 12.9834 73.7392 12.9834C71.3213 12.9834 69.7463 14.9304 69.7463 17.9736C69.7463 20.9464 71.3213 22.9286 73.7392 22.9286C75.5989 22.9286 76.8114 22.1778 78.0457 20.8228C78.175 20.681 78.4001 20.6647 78.5425 20.7949L81.1988 23.2152C81.3725 23.3739 81.3957 23.6369 81.2477 23.8187C79.4332 26.0548 77.2655 27.6351 73.6295 27.6351Z" fill="#135359"></path> <path fill-rule="evenodd" clip-rule="evenodd" d="M96.8104 27.6351C96.5529 27.6351 96.3445 27.4271 96.3445 27.1714V17.2412C96.3445 13.8017 95.1687 12.7765 93.0725 12.7765C90.9776 12.7765 89.7646 13.8017 89.7646 17.1316V27.1714C89.7646 27.4271 89.5562 27.6351 89.2987 27.6351H85.1561C84.8993 27.6351 84.6909 27.4271 84.6909 27.1714V4.91166C84.6909 4.4843 84.8785 4.07887 85.2052 3.80128L88.6711 0.860506C89.1017 0.495808 89.7646 0.80035 89.7646 1.36306V9.70287C90.6465 8.78736 92.2636 8.01912 94.2861 8.01912C99.2125 8.01912 101.418 11.386 101.418 16.8026V27.1714C101.418 27.4271 101.209 27.6351 100.952 27.6351H96.8104Z" fill="#135359"></path> <path fill-rule="evenodd" clip-rule="evenodd" d="M115.547 19.4604C114.66 18.9293 113.809 18.6813 111.995 18.6813C110.07 18.6813 109.034 19.5313 109.034 21.0185C109.034 22.3287 109.811 23.497 111.995 23.497C113.66 23.497 114.992 22.6828 115.547 21.7976V19.4604ZM116.016 27.2461C115.757 27.2461 115.547 27.0449 115.547 26.7977V26.0069C114.622 26.9273 112.994 27.6351 111.181 27.6351C107.554 27.6351 103.927 25.5118 103.927 21.0173C103.927 16.9119 107.407 14.8589 111.81 14.8589C113.586 14.8589 114.733 15.2134 115.547 15.6024V14.6819C115.547 13.373 114.622 12.3108 112.771 12.3108C110.623 12.3108 109.418 12.5817 107.851 13.3446C107.624 13.4549 107.345 13.3797 107.222 13.1664L105.708 10.5444C105.583 10.3275 105.666 10.0499 105.893 9.93115C107.975 8.83798 109.819 8.27686 112.771 8.27686C117.472 8.27686 120.655 10.6123 120.655 14.7886V26.7977C120.655 27.0449 120.445 27.2461 120.186 27.2461H116.016Z" fill="#135359"></path> </svg>